<?xml version="1.0" encoding="UTF-8" standalone="no"?>
<!-- Created with Inkscape (http://www.inkscape.org/) -->

<svg
   xmlns:dc="http://purl.org/dc/elements/1.1/"
   xmlns:cc="http://creativecommons.org/ns#"
   xmlns:rdf="http://www.w3.org/1999/02/22-rdf-syntax-ns#"
   xmlns:svg="http://www.w3.org/2000/svg"
   xmlns="http://www.w3.org/2000/svg"
   xmlns:sodipodi="http://sodipodi.sourceforge.net/DTD/sodipodi-0.dtd"
   xmlns:inkscape="http://www.inkscape.org/namespaces/inkscape"
   width="765"
   height="990"
   id="svg3711"
   version="1.1"
   inkscape:version="0.48.0 r9654"
   sodipodi:docname="body2.svg">
  <defs
     id="defs3713" />
  <sodipodi:namedview
     id="base"
     pagecolor="#ffffff"
     bordercolor="#666666"
     borderopacity="1.0"
     inkscape:pageopacity="0.0"
     inkscape:pageshadow="2"
     inkscape:zoom="1.7382121"
     inkscape:cx="375"
     inkscape:cy="-1.8494645"
     inkscape:document-units="in"
     inkscape:current-layer="layer1"
     showgrid="false"
     inkscape:window-width="1353"
     inkscape:window-height="1096"
     inkscape:window-x="42"
     inkscape:window-y="39"
     inkscape:window-maximized="0" />
  <metadata
     id="metadata3716">
    <rdf:RDF>
      <cc:Work
         rdf:about="">
        <dc:format>image/svg+xml</dc:format>
        <dc:type
           rdf:resource="http://purl.org/dc/dcmitype/StillImage" />
        <dc:title></dc:title>
      </cc:Work>
    </rdf:RDF>
  </metadata>
  <g
     inkscape:label="Layer 1"
     inkscape:groupmode="layer"
     id="layer1"
     transform="translate(0,-62.362183)">
    <path
       inkscape:connector-curvature="0"
       d="m 14.770016,629.87496 c -2.620127,1.51239 -5.9907072,0.6084 -7.5030917,-2.01029 -1.5123843,-2.62013 -0.6083973,-5.99071 2.0102948,-7.50309 2.6201279,-1.51239 5.9907079,-0.6084 7.5030919,2.01029 1.512385,2.62013 0.609833,5.99071 -2.010295,7.50309 z"
       style="fill:none;stroke:#000000;stroke-width:0.26999938000000001;stroke-linecap:butt;stroke-linejoin:miter;stroke-miterlimit:2.61310004999999990;stroke-opacity:1;stroke-dasharray:none"
       id="path3049" />
    <path
       inkscape:connector-curvature="0"
       d="m 14.770016,202.3752 c -2.620127,1.51238 -5.9907072,0.60983 -7.5030917,-2.0103 -1.5123843,-2.61869 -0.6083973,-5.99071 2.0102948,-7.50166 2.6201279,-1.51238 5.9907079,-0.60983 7.5030919,2.0103 1.512385,2.61869 0.609833,5.98927 -2.010295,7.50166 z"
       style="fill:none;stroke:#000000;stroke-width:0.26999938000000001;stroke-linecap:butt;stroke-linejoin:miter;stroke-miterlimit:2.61310004999999990;stroke-opacity:1;stroke-dasharray:none"
       id="path3137" />
    <path
       inkscape:connector-curvature="0"
       d="m 131.2265,926.58228 0,-10.62944 -51.378029,0 0,-106.29926 -10.629739,0 0,-35.43342 10.629739,0 0,-12.04742 28.346449,0 0,5.66929 10.62974,0 0,-5.66929 7.08697,0 0,-11.33858 -7.08697,0 0,-5.66929 -10.62974,0 0,5.66929 -28.346449,0 0,-12.04598 -10.629739,0 0,-35.43342 10.629739,0 0,-304.72541 -10.629739,0 0,-35.43199 10.629739,0 0,-12.04743 28.346449,0 0,5.6693 10.62974,0 0,-5.6693 7.08697,0 0,-11.33858 -7.08697,0 0,-5.66929 -10.62974,0 0,5.66929 -28.346449,0 0,-12.04742 -10.629739,0 0,-35.43198 10.629739,0 51.378029,0 0,-10.63118 35.43198,0 0,10.63118 12.04886,0 0,28.34501 -5.67073,0 0,10.62974 5.67073,0 0,7.08697 11.33714,0 0,-7.08697 5.67073,0 0,-10.62974 -5.67073,0 0,-28.34501 12.04742,0 0,-10.63118 35.43342,0 0,10.63118 63.77987,0 0,-10.63118 35.43199,0 0,10.63118 12.04885,0 0,28.34501 -5.67072,0 0,10.62974 5.67072,0 0,7.08697 11.33858,0 0,-7.08697 5.66786,0 0,-10.62974 -5.66786,0 0,-28.34501 12.04599,0 0,-10.63118 35.43342,0 0,10.63118 51.37803,0 10.62974,0 0,35.43198 -10.62974,0 0,12.04742 -28.34645,0 0,-5.66929 -10.62974,0 0,5.66929 -7.08697,0 0,11.33858 7.08697,0 0,5.6693 10.62974,0 0,-5.6693 28.34645,0 0,12.04743 10.62974,0 0,35.43199 -10.62974,0 0,304.72541 10.62974,0 0,35.43342 -10.62974,0 0,12.04598 -28.34645,0 0,-5.66929 -10.62974,0 0,5.66929 -7.08697,0 0,11.33858 7.08697,0 0,5.66929 10.62974,0 0,-5.66929 28.34645,0 0,12.04742 10.62974,0 0,35.43342 -10.62974,0 0,106.29926 -51.37803,0 0,10.62944 -35.43342,0 0,-10.62944 -12.04599,0 0,-28.34659 5.66786,0 0,-10.63003 -5.66786,0 0,-7.08654 -11.33858,0 0,7.08654 -5.67072,0 0,10.63003 5.67072,0 0,28.34659 -12.04885,0 0,10.62944 -35.43199,0 0,-10.62944 -63.77987,0 0,10.62944 -35.43342,0 0,-10.62944 -12.04742,0 0,-28.34659 5.67073,0 0,-10.63003 -5.67073,0 0,-7.08654 -11.33714,0 0,7.08654 -5.67073,0 0,10.63003 5.67073,0 0,28.34659 -12.04886,0 0,10.62944 -35.43198,0 z"
       style="fill:none;stroke:#000000;stroke-width:0.26999938000000001;stroke-linecap:butt;stroke-linejoin:miter;stroke-miterlimit:2.61310004999999990;stroke-opacity:1;stroke-dasharray:none"
       id="path3179" />
    <path
       inkscape:connector-curvature="0"
       d="m 93.312137,856.86739 c 0,-3.12191 2.546948,-5.66886 5.670725,-5.66886 3.122348,0 5.669288,2.54695 5.669288,5.66886 0,3.1232 -2.54694,5.66958 -5.669288,5.66958 -3.123777,0 -5.670725,-2.54638 -5.670725,-5.66958 z"
       style="fill:none;stroke:#000000;stroke-width:0.26999938000000001;stroke-linecap:butt;stroke-linejoin:miter;stroke-miterlimit:2.61310004999999990;stroke-opacity:1;stroke-dasharray:none"
       id="path3181" />
    <path
       inkscape:connector-curvature="0"
       d="m 147.52553,676.51352 c 0,-3.12235 2.54694,-5.66929 5.66929,-5.66929 3.12234,0 5.66929,2.54694 5.66929,5.66929 0,3.12234 -2.54695,5.66929 -5.66929,5.66929 -3.12235,0 -5.66929,-2.54695 -5.66929,-5.66929 z"
       style="fill:none;stroke:#000000;stroke-width:0.26999938000000001;stroke-linecap:butt;stroke-linejoin:miter;stroke-miterlimit:2.61310004999999990;stroke-opacity:1;stroke-dasharray:none"
       id="path3183" />
    <path
       inkscape:connector-curvature="0"
       d="m 246.02854,676.51352 c 0,-3.12235 2.54695,-5.66929 5.67073,-5.66929 3.1209,0 5.66785,2.54694 5.66785,5.66929 0,3.12234 -2.54695,5.66929 -5.66785,5.66929 -3.12378,0 -5.67073,-2.54695 -5.67073,-5.66929 z"
       style="fill:none;stroke:#000000;stroke-width:0.26999938000000001;stroke-linecap:butt;stroke-linejoin:miter;stroke-miterlimit:2.61310004999999990;stroke-opacity:1;stroke-dasharray:none"
       id="path3185" />
    <path
       inkscape:connector-curvature="0"
       d="m 413.62773,905.05707 c -3.02477,0 -5.4928,-2.46731 -5.4928,-5.49237 0,-3.02505 2.46803,-5.49193 5.4928,-5.49193 l 24.80368,0 c 3.02477,0 5.49136,2.46688 5.49136,5.49193 0,3.02506 -2.46659,5.49237 -5.49136,5.49237 l -24.80368,0 z"
       style="fill:none;stroke:#000000;stroke-width:0.26999938000000001;stroke-linecap:butt;stroke-linejoin:miter;stroke-miterlimit:2.61310004999999990;stroke-opacity:1;stroke-dasharray:none"
       id="path3187" />
    <path
       inkscape:connector-curvature="0"
       d="m 268.35271,671.19865 c -3.0262,0 -5.49279,-2.4666 -5.49279,-5.49136 0,-3.02621 2.46659,-5.4928 5.49279,-5.4928 l 24.80225,0 c 3.02477,0 5.4928,2.46659 5.4928,5.4928 0,3.02476 -2.46803,5.49136 -5.4928,5.49136 l -24.80225,0 z"
       style="fill:none;stroke:#000000;stroke-width:0.26999938000000001;stroke-linecap:butt;stroke-linejoin:miter;stroke-miterlimit:2.61310004999999990;stroke-opacity:1;stroke-dasharray:none"
       id="path3189" />
    <path
       inkscape:connector-curvature="0"
       d="m 413.62773,671.19865 c -3.02477,0 -5.4928,-2.4666 -5.4928,-5.49136 0,-3.02621 2.46803,-5.4928 5.4928,-5.4928 l 24.80368,0 c 3.02477,0 5.49136,2.46659 5.49136,5.4928 0,3.02476 -2.46659,5.49136 -5.49136,5.49136 l -24.80368,0 z"
       style="fill:none;stroke:#000000;stroke-width:0.26999938000000001;stroke-linecap:butt;stroke-linejoin:miter;stroke-miterlimit:2.61310004999999990;stroke-opacity:1;stroke-dasharray:none"
       id="path3191" />
    <path
       inkscape:connector-curvature="0"
       d="m 269.41598,388.00104 c -9.75876,0 -17.71671,-7.95939 -17.71671,-17.71671 0,-9.75875 7.95795,-17.71671 17.71671,-17.71671 9.75732,0 17.71527,7.95796 17.71527,17.71671 0,9.75732 -7.95795,17.71671 -17.71527,17.71671 z"
       style="fill:none;stroke:#000000;stroke-width:0.26999938000000001;stroke-linecap:butt;stroke-linejoin:miter;stroke-miterlimit:2.61310004999999990;stroke-opacity:1;stroke-dasharray:none"
       id="path3193" />
    <path
       inkscape:connector-curvature="0"
       d="m 269.41598,818.51194 c 16.58744,0 30.11711,13.52953 30.11711,30.11826 0,16.58874 -13.52967,30.11784 -30.11711,30.11784 -16.59032,0 -30.11856,-13.5291 -30.11856,-30.11784 0,-16.58873 13.52824,-30.11826 30.11856,-30.11826 z"
       style="fill:none;stroke:#000000;stroke-width:0.26999938000000001;stroke-linecap:butt;stroke-linejoin:miter;stroke-miterlimit:2.61310004999999990;stroke-opacity:1;stroke-dasharray:none"
       id="path3195" />
    <path
       inkscape:connector-curvature="0"
       d="m 315.4777,797.07468 c 3.02477,0 5.4928,2.46745 5.4928,5.49193 0,3.02506 -2.46803,5.49237 -5.4928,5.49237 -3.02477,0 -5.49136,-2.46731 -5.49136,-5.49237 0,-3.02448 2.46659,-5.49193 5.49136,-5.49193 z"
       style="fill:none;stroke:#000000;stroke-width:0.26999938000000001;stroke-linecap:butt;stroke-linejoin:miter;stroke-miterlimit:2.61310004999999990;stroke-opacity:1;stroke-dasharray:none"
       id="path3197" />
    <path
       inkscape:connector-curvature="0"
       d="m 223.35282,797.07468 c 3.02476,0 5.49136,2.46745 5.49136,5.49193 0,3.02506 -2.4666,5.49237 -5.49136,5.49237 -3.02621,0 -5.4928,-2.46731 -5.4928,-5.49237 0,-3.02448 2.46659,-5.49193 5.4928,-5.49193 z"
       style="fill:none;stroke:#000000;stroke-width:0.26999938000000001;stroke-linecap:butt;stroke-linejoin:miter;stroke-miterlimit:2.61310004999999990;stroke-opacity:1;stroke-dasharray:none"
       id="path3199" />
    <path
       inkscape:connector-curvature="0"
       d="m 223.35282,889.20028 c 3.02476,0 5.49136,2.46745 5.49136,5.49251 0,3.02505 -2.4666,5.49179 -5.49136,5.49179 -3.02621,0 -5.4928,-2.46674 -5.4928,-5.49179 0,-3.02506 2.46659,-5.49251 5.4928,-5.49251 z"
       style="fill:none;stroke:#000000;stroke-width:0.26999938000000001;stroke-linecap:butt;stroke-linejoin:miter;stroke-miterlimit:2.61310004999999990;stroke-opacity:1;stroke-dasharray:none"
       id="path3201" />
    <path
       inkscape:connector-curvature="0"
       d="m 315.4777,889.20028 c 3.02477,0 5.4928,2.46745 5.4928,5.49251 0,3.02505 -2.46803,5.49179 -5.4928,5.49179 -3.02477,0 -5.49136,-2.46674 -5.49136,-5.49179 0,-3.02506 2.46659,-5.49251 5.49136,-5.49251 z"
       style="fill:none;stroke:#000000;stroke-width:0.26999938000000001;stroke-linecap:butt;stroke-linejoin:miter;stroke-miterlimit:2.61310004999999990;stroke-opacity:1;stroke-dasharray:none"
       id="path3203" />
    <path
       inkscape:connector-curvature="0"
       d="m 242.84019,416.16957 c 3.02477,0 5.4928,2.46659 5.4928,5.49279 0,3.02477 -2.46803,5.49137 -5.4928,5.49137 -3.02477,0 -5.49279,-2.4666 -5.49279,-5.49137 0,-3.0262 2.46802,-5.49279 5.49279,-5.49279 z"
       style="fill:none;stroke:#000000;stroke-width:0.26999938000000001;stroke-linecap:butt;stroke-linejoin:miter;stroke-miterlimit:2.61310004999999990;stroke-opacity:1;stroke-dasharray:none"
       id="path3205" />
    <path
       inkscape:connector-curvature="0"
       d="m 295.99032,416.16957 c 3.02477,0 5.49137,2.46659 5.49137,5.49279 0,3.02477 -2.4666,5.49137 -5.49137,5.49137 -3.02477,0 -5.49279,-2.4666 -5.49279,-5.49137 0,-3.0262 2.46802,-5.49279 5.49279,-5.49279 z"
       style="fill:none;stroke:#000000;stroke-width:0.26999938000000001;stroke-linecap:butt;stroke-linejoin:miter;stroke-miterlimit:2.61310004999999990;stroke-opacity:1;stroke-dasharray:none"
       id="path3207" />
    <path
       inkscape:connector-curvature="0"
       d="m 136.54137,416.16957 c 3.02476,0 5.49136,2.46659 5.49136,5.49279 0,3.02477 -2.4666,5.49137 -5.49136,5.49137 -3.02477,0 -5.4928,-2.4666 -5.4928,-5.49137 0,-3.0262 2.46803,-5.49279 5.4928,-5.49279 z"
       style="fill:none;stroke:#000000;stroke-width:0.26999938000000001;stroke-linecap:butt;stroke-linejoin:miter;stroke-miterlimit:2.61310004999999990;stroke-opacity:1;stroke-dasharray:none"
       id="path3209" />
    <path
       inkscape:connector-curvature="0"
       d="m 189.6915,416.16957 c 3.02477,0 5.49136,2.46659 5.49136,5.49279 0,3.02477 -2.46659,5.49137 -5.49136,5.49137 -3.02621,0 -5.4928,-2.4666 -5.4928,-5.49137 0,-3.0262 2.46659,-5.49279 5.4928,-5.49279 z"
       style="fill:none;stroke:#000000;stroke-width:0.26999938000000001;stroke-linecap:butt;stroke-linejoin:miter;stroke-miterlimit:2.61310004999999990;stroke-opacity:1;stroke-dasharray:none"
       id="path3211" />
    <path
       inkscape:connector-curvature="0"
       d="m 349.13902,416.16957 c 3.02477,0 5.4928,2.46659 5.4928,5.49279 0,3.02477 -2.46803,5.49137 -5.4928,5.49137 -3.02477,0 -5.49136,-2.4666 -5.49136,-5.49137 0,-3.0262 2.46659,-5.49279 5.49136,-5.49279 z"
       style="fill:none;stroke:#000000;stroke-width:0.26999938000000001;stroke-linecap:butt;stroke-linejoin:miter;stroke-miterlimit:2.61310004999999990;stroke-opacity:1;stroke-dasharray:none"
       id="path3213" />
    <path
       inkscape:connector-curvature="0"
       d="m 402.28915,416.16957 c 3.02477,0 5.49136,2.46659 5.49136,5.49279 0,3.02477 -2.46659,5.49137 -5.49136,5.49137 -3.02477,0 -5.4928,-2.4666 -5.4928,-5.49137 0,-3.0262 2.46803,-5.49279 5.4928,-5.49279 z"
       style="fill:none;stroke:#000000;stroke-width:0.26999938000000001;stroke-linecap:butt;stroke-linejoin:miter;stroke-miterlimit:2.61310004999999990;stroke-opacity:1;stroke-dasharray:none"
       id="path3215" />
    <path
       inkscape:connector-curvature="0"
       d="m 262.329,333.96413 c 2.43933,0 4.42954,1.99021 4.42954,4.42954 0,2.43933 -1.99021,4.42954 -4.42954,4.42954 -2.44076,0 -4.42953,-1.99021 -4.42953,-4.42954 0,-2.43933 1.98877,-4.42954 4.42953,-4.42954 z"
       style="fill:none;stroke:#000000;stroke-width:0.26999938000000001;stroke-linecap:butt;stroke-linejoin:miter;stroke-miterlimit:2.61310004999999990;stroke-opacity:1;stroke-dasharray:none"
       id="path3227" />
    <path
       inkscape:connector-curvature="0"
       d="m 276.50151,333.96413 c 2.43933,0 4.42954,1.99021 4.42954,4.42954 0,2.43933 -1.99021,4.42954 -4.42954,4.42954 -2.43933,0 -4.42953,-1.99021 -4.42953,-4.42954 0,-2.43933 1.9902,-4.42954 4.42953,-4.42954 z"
       style="fill:none;stroke:#000000;stroke-width:0.26999938000000001;stroke-linecap:butt;stroke-linejoin:miter;stroke-miterlimit:2.61310004999999990;stroke-opacity:1;stroke-dasharray:none"
       id="path3229" />
    <path
       inkscape:connector-curvature="0"
       d="m 262.329,397.74401 c 2.43933,0 4.42954,1.99021 4.42954,4.42954 0,2.43933 -1.99021,4.42954 -4.42954,4.42954 -2.44076,0 -4.42953,-1.99021 -4.42953,-4.42954 0,-2.43933 1.98877,-4.42954 4.42953,-4.42954 z"
       style="fill:none;stroke:#000000;stroke-width:0.26999938000000001;stroke-linecap:butt;stroke-linejoin:miter;stroke-miterlimit:2.61310004999999990;stroke-opacity:1;stroke-dasharray:none"
       id="path3231" />
    <path
       inkscape:connector-curvature="0"
       d="m 276.50151,397.74401 c 2.43933,0 4.42954,1.99021 4.42954,4.42954 0,2.43933 -1.99021,4.42954 -4.42954,4.42954 -2.43933,0 -4.42953,-1.99021 -4.42953,-4.42954 0,-2.43933 1.9902,-4.42954 4.42953,-4.42954 z"
       style="fill:none;stroke:#000000;stroke-width:0.26999938000000001;stroke-linecap:butt;stroke-linejoin:miter;stroke-miterlimit:2.61310004999999990;stroke-opacity:1;stroke-dasharray:none"
       id="path3233" />
    <path
       inkscape:connector-curvature="0"
       d="m 233.09579,377.36987 c 0,-2.43933 1.9902,-4.4281 4.42953,-4.4281 2.43933,0 4.42954,1.98877 4.42954,4.4281 0,2.43933 -1.99021,4.42954 -4.42954,4.42954 -2.43933,0 -4.42953,-1.99021 -4.42953,-4.42954 z"
       style="fill:none;stroke:#000000;stroke-width:0.26999938000000001;stroke-linecap:butt;stroke-linejoin:miter;stroke-miterlimit:2.61310004999999990;stroke-opacity:1;stroke-dasharray:none"
       id="path3235" />
    <path
       inkscape:connector-curvature="0"
       d="m 233.09579,363.19736 c 0,-2.43933 1.9902,-4.42953 4.42953,-4.42953 2.43933,0 4.42954,1.9902 4.42954,4.42953 0,2.43933 -1.99021,4.42954 -4.42954,4.42954 -2.43933,0 -4.42953,-1.99021 -4.42953,-4.42954 z"
       style="fill:none;stroke:#000000;stroke-width:0.26999938000000001;stroke-linecap:butt;stroke-linejoin:miter;stroke-miterlimit:2.61310004999999990;stroke-opacity:1;stroke-dasharray:none"
       id="path3237" />
    <path
       inkscape:connector-curvature="0"
       d="m 296.87566,377.36987 c 0,-2.43933 1.9902,-4.4281 4.42953,-4.4281 2.43933,0 4.4281,1.98877 4.4281,4.4281 0,2.43933 -1.98877,4.42954 -4.4281,4.42954 -2.43933,0 -4.42953,-1.99021 -4.42953,-4.42954 z"
       style="fill:none;stroke:#000000;stroke-width:0.26999938000000001;stroke-linecap:butt;stroke-linejoin:miter;stroke-miterlimit:2.61310004999999990;stroke-opacity:1;stroke-dasharray:none"
       id="path3239" />
    <path
       inkscape:connector-curvature="0"
       d="m 296.87566,363.19736 c 0,-2.43933 1.9902,-4.42953 4.42953,-4.42953 2.43933,0 4.4281,1.9902 4.4281,4.42953 0,2.43933 -1.98877,4.42954 -4.4281,4.42954 -2.43933,0 -4.42953,-1.99021 -4.42953,-4.42954 z"
       style="fill:none;stroke:#000000;stroke-width:0.26999938000000001;stroke-linecap:butt;stroke-linejoin:miter;stroke-miterlimit:2.61310004999999990;stroke-opacity:1;stroke-dasharray:none"
       id="path3241" />
    <path
       inkscape:connector-curvature="0"
       d="m 149.9175,335.63005 c 3.02477,0 5.49137,2.4666 5.49137,5.4928 0,3.02477 -2.4666,5.49136 -5.49137,5.49136 -3.02477,0 -5.49279,-2.46659 -5.49279,-5.49136 0,-3.0262 2.46802,-5.4928 5.49279,-5.4928 z"
       style="fill:none;stroke:#000000;stroke-width:0.26999938000000001;stroke-linecap:butt;stroke-linejoin:miter;stroke-miterlimit:2.61310004999999990;stroke-opacity:1;stroke-dasharray:none"
       id="path3243" />
    <path
       inkscape:connector-curvature="0"
       d="m 229.46405,300.05601 c 3.02621,0 5.4928,2.4666 5.4928,5.49137 0,3.02476 -2.46659,5.49279 -5.4928,5.49279 -3.02476,0 -5.49136,-2.46803 -5.49136,-5.49279 0,-3.02477 2.4666,-5.49137 5.49136,-5.49137 z"
       style="fill:none;stroke:#000000;stroke-width:0.26999938000000001;stroke-linecap:butt;stroke-linejoin:miter;stroke-miterlimit:2.61310004999999990;stroke-opacity:1;stroke-dasharray:none"
       id="path3245" />
    <path
       inkscape:connector-curvature="0"
       d="m 392.45578,335.63005 c -3.02333,0 -5.49136,2.4666 -5.49136,5.4928 0,3.02477 2.46803,5.49136 5.49136,5.49136 3.0262,0 5.4928,-2.46659 5.4928,-5.49136 0,-3.0262 -2.4666,-5.4928 -5.4928,-5.4928 z"
       style="fill:none;stroke:#000000;stroke-width:0.26999938000000001;stroke-linecap:butt;stroke-linejoin:miter;stroke-miterlimit:2.61310004999999990;stroke-opacity:1;stroke-dasharray:none"
       id="path3247" />
    <path
       inkscape:connector-curvature="0"
       d="m 312.90923,300.05601 c -3.02477,0 -5.49136,2.4666 -5.49136,5.49137 0,3.02476 2.46659,5.49279 5.49136,5.49279 3.02477,0 5.4928,-2.46803 5.4928,-5.49279 0,-3.02477 -2.46803,-5.49137 -5.4928,-5.49137 z"
       style="fill:none;stroke:#000000;stroke-width:0.26999938000000001;stroke-linecap:butt;stroke-linejoin:miter;stroke-miterlimit:2.61310004999999990;stroke-opacity:1;stroke-dasharray:none"
       id="path3249" />
    <path
       inkscape:connector-curvature="0"
       d="m 140.08413,178.94615 c 17.56461,0 31.88922,14.32461 31.88922,31.88922 0,17.56461 -14.32461,31.88921 -31.88922,31.88921 -17.56461,0 -31.88921,-14.3246 -31.88921,-31.88921 0,-17.56461 14.3246,-31.88922 31.88921,-31.88922 z"
       style="fill:none;stroke:#000000;stroke-width:0.26999938000000001;stroke-linecap:butt;stroke-linejoin:miter;stroke-miterlimit:2.61310004999999990;stroke-opacity:1;stroke-dasharray:none"
       id="path3391" />
    <path
       inkscape:connector-curvature="0"
       d="m 69.218732,168.31497 c 0,-15.61171 12.733302,-28.34644 28.346449,-28.34644 l 85.039349,0 c 15.61171,0 28.34645,12.73473 28.34645,28.34644 l 0,85.03935 c 0,15.61315 -12.73474,28.34645 -28.34645,28.34645 l -85.039349,0 c -15.613147,0 -28.346449,-12.7333 -28.346449,-28.34645 l 0,-85.03935 z"
       style="fill:none;stroke:#000000;stroke-width:0.26999938000000001;stroke-linecap:butt;stroke-linejoin:miter;stroke-miterlimit:2.61310004999999990;stroke-opacity:1;stroke-dasharray:none"
       id="path3393" />
    <path
       inkscape:connector-curvature="0"
       d="m 186.14729,159.28084 c 3.02477,0 5.4928,2.4666 5.4928,5.49137 0,3.02477 -2.46803,5.49279 -5.4928,5.49279 -3.02477,0 -5.49136,-2.46802 -5.49136,-5.49279 0,-3.02477 2.46659,-5.49137 5.49136,-5.49137 z"
       style="fill:none;stroke:#000000;stroke-width:0.26999938000000001;stroke-linecap:butt;stroke-linejoin:miter;stroke-miterlimit:2.61310004999999990;stroke-opacity:1;stroke-dasharray:none"
       id="path3395" />
    <path
       inkscape:connector-curvature="0"
       d="m 94.022413,159.28084 c 3.024769,0 5.491362,2.4666 5.491362,5.49137 0,3.02477 -2.466593,5.49279 -5.491362,5.49279 -3.026204,0 -5.492797,-2.46802 -5.492797,-5.49279 0,-3.02477 2.466593,-5.49137 5.492797,-5.49137 z"
       style="fill:none;stroke:#000000;stroke-width:0.26999938000000001;stroke-linecap:butt;stroke-linejoin:miter;stroke-miterlimit:2.61310004999999990;stroke-opacity:1;stroke-dasharray:none"
       id="path3397" />
    <path
       inkscape:connector-curvature="0"
       d="m 94.022413,251.40573 c 3.024769,0 5.491362,2.46803 5.491362,5.4928 0,3.02476 -2.466593,5.49136 -5.491362,5.49136 -3.026204,0 -5.492797,-2.4666 -5.492797,-5.49136 0,-3.02477 2.466593,-5.4928 5.492797,-5.4928 z"
       style="fill:none;stroke:#000000;stroke-width:0.26999938000000001;stroke-linecap:butt;stroke-linejoin:miter;stroke-miterlimit:2.61310004999999990;stroke-opacity:1;stroke-dasharray:none"
       id="path3399" />
    <path
       inkscape:connector-curvature="0"
       d="m 186.14729,251.40573 c 3.02477,0 5.4928,2.46803 5.4928,5.4928 0,3.02476 -2.46803,5.49136 -5.4928,5.49136 -3.02477,0 -5.49136,-2.4666 -5.49136,-5.49136 0,-3.02477 2.46659,-5.4928 5.49136,-5.4928 z"
       style="fill:none;stroke:#000000;stroke-width:0.26999938000000001;stroke-linecap:butt;stroke-linejoin:miter;stroke-miterlimit:2.61310004999999990;stroke-opacity:1;stroke-dasharray:none"
       id="path3401" />
    <path
       inkscape:connector-curvature="0"
       d="m 210.95098,193.11866 53.15013,-0.0674 0,-10.5623 35.43198,0 0,10.62974 12.04742,0 0,28.34644 -5.66929,0 0,10.62974 5.66929,0 0,7.08698 11.33858,0 0,-7.08698 5.66929,0 0,-10.62974 -5.66929,0 0,-28.34644 12.04742,0 0,-10.62974 35.43342,0 c 0,0 0,55.25369 0,70.86684 0,15.61171 -12.7333,28.34501 -28.34645,28.34501 l -102.75606,0.001 c -15.61314,0 -28.34644,-12.73474 -28.34644,-28.34645 0,-15.61171 0,-60.2371 0,-60.2371 z"
       style="fill:none;stroke:#000000;stroke-width:0.26999938000000001;stroke-linecap:butt;stroke-linejoin:miter;stroke-miterlimit:2.61310004999999990;stroke-opacity:1;stroke-dasharray:none"
       id="path3405" />
    <path
       inkscape:connector-curvature="0"
       d="m 239.29742,239.00389 c 7.90343,0 14.35044,6.447 14.35044,14.35187 0,7.90343 -6.44701,14.349 -14.35044,14.349 -7.90486,0 -14.35043,-6.44557 -14.35043,-14.349 0,-7.90487 6.44557,-14.35187 14.35043,-14.35187 z"
       style="fill:none;stroke:#000000;stroke-width:0.26999938000000001;stroke-linecap:butt;stroke-linejoin:miter;stroke-miterlimit:2.61310004999999990;stroke-opacity:1;stroke-dasharray:none"
       id="path3407" />
    <path
       inkscape:connector-curvature="0"
       d="m 458.98205,182.48892 -53.15013,0.0674 0,10.56229 -35.43342,0 0,-10.62973 -12.04599,0 0,-28.34645 5.66929,0 0,-10.62974 -5.66929,0 0,-7.08553 -11.33858,0 0,7.08553 -5.66929,0 0,10.62974 5.66929,0 0,28.34645 -12.04742,0 0,10.62973 -35.43342,0 c 0,0 0,-55.25225 0,-70.8654 0,-15.61314 12.7333,-28.346454 28.34645,-28.346454 l 102.75606,0 c 15.61315,0 28.34645,12.733314 28.34645,28.345024 0,15.61315 0,60.2371 0,60.2371 z"
       style="fill:none;stroke:#000000;stroke-width:0.26999938000000001;stroke-linecap:butt;stroke-linejoin:miter;stroke-miterlimit:2.61310004999999990;stroke-opacity:1;stroke-dasharray:none"
       id="path3411" />
    <path
       inkscape:connector-curvature="0"
       d="m 430.6356,136.60369 c -7.90343,0 -14.35043,-6.44701 -14.35043,-14.35044 0,-7.90342 6.447,-14.35043 14.35043,-14.35043 7.90343,0 14.35043,6.44701 14.35043,14.35043 0,7.90343 -6.447,14.35044 -14.35043,14.35044 z"
       style="fill:none;stroke:#000000;stroke-width:0.26999938000000001;stroke-linecap:butt;stroke-linejoin:miter;stroke-miterlimit:2.61310004999999990;stroke-opacity:1;stroke-dasharray:none"
       id="path3413" />
  </g>
</svg>
