<?xml version="1.0" encoding="UTF-8" standalone="no"?>
<!-- Created with Inkscape (http://www.inkscape.org/) -->

<svg
   xmlns:dc="http://purl.org/dc/elements/1.1/"
   xmlns:cc="http://creativecommons.org/ns#"
   xmlns:rdf="http://www.w3.org/1999/02/22-rdf-syntax-ns#"
   xmlns:svg="http://www.w3.org/2000/svg"
   xmlns="http://www.w3.org/2000/svg"
   xmlns:sodipodi="http://sodipodi.sourceforge.net/DTD/sodipodi-0.dtd"
   xmlns:inkscape="http://www.inkscape.org/namespaces/inkscape"
   width="855.38422"
   height="855.38507"
   id="svg3927"
   version="1.1"
   inkscape:version="0.48.0 r9654"
   sodipodi:docname="wheels.svg">
  <defs
     id="defs3929" />
  <sodipodi:namedview
     id="base"
     pagecolor="#ffffff"
     bordercolor="#666666"
     borderopacity="1.0"
     inkscape:pageopacity="0.0"
     inkscape:pageshadow="2"
     inkscape:zoom="1.2550781"
     inkscape:cx="427.69212"
     inkscape:cy="768.66302"
     inkscape:document-units="in"
     inkscape:current-layer="layer1"
     showgrid="false"
     units="in"
     fit-margin-top="0"
     fit-margin-left="0"
     fit-margin-right="0"
     fit-margin-bottom="0"
     inkscape:window-width="1486"
     inkscape:window-height="1115"
     inkscape:window-x="115"
     inkscape:window-y="18"
     inkscape:window-maximized="0" />
  <metadata
     id="metadata3932">
    <rdf:RDF>
      <cc:Work
         rdf:about="">
        <dc:format>image/svg+xml</dc:format>
        <dc:type
           rdf:resource="http://purl.org/dc/dcmitype/StillImage" />
        <dc:title />
      </cc:Work>
    </rdf:RDF>
  </metadata>
  <g
     inkscape:label="Layer 1"
     inkscape:groupmode="layer"
     id="layer1"
     transform="translate(52.692116,-104.66963)">
    <path
       inkscape:connector-curvature="0"
       d="M 268.20222,931.3588 C 166.17222,990.26546 34.911306,955.09413 -23.995787,853.06434 -82.903024,751.03406 -47.731674,619.77371 54.298094,560.86533 156.32881,501.95838 287.58916,537.13064 346.49754,639.16064 c 58.90695,102.03 23.73468,233.29049 -78.29532,292.19816 z"
       style="fill:none;stroke:#000000;stroke-width:0.26999938000000001;stroke-linecap:butt;stroke-linejoin:miter;stroke-miterlimit:2.61310004999999990;stroke-opacity:1;stroke-dasharray:none"
       id="path2997" />
    <path
       inkscape:connector-curvature="0"
       d="m 137.86308,794.18724 c -2.61869,1.51238 -3.52268,4.88297 -2.01029,7.50309 1.51382,2.61869 4.88296,3.52125 7.50309,2.00886 l 76.71406,-44.29106 c 2.62012,-1.51238 3.52411,-4.88153 2.01173,-7.50165 -1.51382,-2.62013 -4.8844,-3.52268 -7.5031,-2.0103 l -76.71549,44.29106 z"
       style="fill:none;stroke:#000000;stroke-width:0.26999938000000001;stroke-linecap:butt;stroke-linejoin:miter;stroke-miterlimit:2.61310004999999990;stroke-opacity:1;stroke-dasharray:none"
       id="path2999" />
    <path
       inkscape:connector-curvature="0"
       d="m 167.00877,756.08491 c -5.4928,3.17112 -12.55968,1.27706 -15.73081,-4.21431 -3.17113,-5.49279 -1.27849,-12.55968 4.2143,-15.73224 5.4928,-3.17113 12.55968,-1.27706 15.73081,4.21574 3.17113,5.49279 1.2785,12.55968 -4.2143,15.73081 z"
       style="fill:none;stroke:#000000;stroke-width:0.26999938000000001;stroke-linecap:butt;stroke-linejoin:miter;stroke-miterlimit:2.61310004999999990;stroke-opacity:1;stroke-dasharray:none"
       id="path3001" />
    <path
       inkscape:connector-curvature="0"
       d="m 102.4311,732.81513 c -2.620126,1.51239 -3.522676,4.88297 -2.01173,7.50309 1.51382,2.62013 4.8844,3.52268 7.50309,2.0103 l 76.71549,-44.29106 c 2.61869,-1.51238 3.52268,-4.88296 2.0103,-7.50309 -1.51239,-2.62013 -4.88297,-3.52268 -7.5031,-2.0103 l -76.71405,44.29106 z"
       style="fill:none;stroke:#000000;stroke-width:0.26999938000000001;stroke-linecap:butt;stroke-linejoin:miter;stroke-miterlimit:2.61310004999999990;stroke-opacity:1;stroke-dasharray:none"
       id="path3003" />
    <path
       inkscape:connector-curvature="0"
       d="m 323.56353,658.74272 c -2.62012,1.51239 -5.9907,0.6084 -7.50309,-2.01029 -1.51238,-2.62013 -0.6084,-5.99071 2.0103,-7.50309 2.62012,-1.51239 5.9907,-0.6084 7.50309,2.01029 1.51238,2.62013 0.60983,5.99071 -2.0103,7.50309 z"
       style="fill:none;stroke:#000000;stroke-width:0.26999938000000001;stroke-linecap:butt;stroke-linejoin:miter;stroke-miterlimit:2.61310004999999990;stroke-opacity:1;stroke-dasharray:none"
       id="path3005" />
    <path
       inkscape:connector-curvature="0"
       d="m 155.75915,930.36399 c 0,-3.02506 2.4666,-5.49194 5.49137,-5.49194 3.02477,0 5.49279,2.46688 5.49279,5.49194 0,3.02505 -2.46802,5.49236 -5.49279,5.49236 -3.02477,0 -5.49137,-2.46731 -5.49137,-5.49236 z"
       style="fill:none;stroke:#000000;stroke-width:0.26999938000000001;stroke-linecap:butt;stroke-linejoin:miter;stroke-miterlimit:2.61310004999999990;stroke-opacity:1;stroke-dasharray:none"
       id="path3007" />
    <path
       inkscape:connector-curvature="0"
       d="m 4.4297249,649.22934 c 2.619841,1.51238 3.522823,4.88296 2.010008,7.50309 -1.512241,2.61869 -4.882534,3.52268 -7.501801,2.01029 -2.61984,-1.51238 -3.522823,-4.88296 -2.010582,-7.50309 1.512816,-2.61869 4.882535,-3.52268 7.502375,-2.01029 z"
       style="fill:none;stroke:#000000;stroke-width:0.26999938000000001;stroke-linecap:butt;stroke-linejoin:miter;stroke-miterlimit:2.61310004999999990;stroke-opacity:1;stroke-dasharray:none"
       id="path3009" />
    <path
       inkscape:connector-curvature="0"
       d="m 55.905044,776.24669 c 12.6759,-7.31799 28.9834,-2.94872 36.30239,9.72718 7.31799,12.67591 2.94872,28.98355 -9.72747,36.30297 -12.67591,7.31785 -28.9834,2.94815 -36.301967,-9.72718 -7.31799,-12.67591 -2.948719,-28.98355 9.727047,-36.30297 z"
       style="fill:none;stroke:#000000;stroke-width:0.26999938000000001;stroke-linecap:butt;stroke-linejoin:miter;stroke-miterlimit:2.61310004999999990;stroke-opacity:1;stroke-dasharray:none"
       id="path3011" />
    <path
       inkscape:connector-curvature="0"
       d="m 66.446534,794.50579 c 2.61927,-1.51239 5.99013,-0.60983 7.50237,2.01029 1.51225,2.6187 0.60926,5.98928 -2.01043,7.50166 -2.61984,1.51238 -5.98971,0.60983 -7.50238,-2.01029 -1.51238,-2.62013 -0.6094,-5.98928 2.01044,-7.50166 z"
       style="fill:none;stroke:#000000;stroke-width:0.26999938000000001;stroke-linecap:butt;stroke-linejoin:miter;stroke-miterlimit:2.61310004999999990;stroke-opacity:1;stroke-dasharray:none"
       id="path3013" />
    <path
       inkscape:connector-curvature="0"
       d="m 62.105964,786.98691 c 6.8449,-3.95171 15.61128,-1.66161 19.51464,5.09964 3.90278,6.75981 1.50334,15.49692 -5.34156,19.45007 -6.84491,3.95171 -15.61128,1.66018 -19.51407,-5.09964 -3.9035,-6.75981 -1.50392,-15.49835 5.34099,-19.45007 z"
       style="fill:none;stroke:#000000;stroke-width:0.26999938000000001;stroke-linecap:butt;stroke-linejoin:miter;stroke-miterlimit:2.61310004999999990;stroke-opacity:1;stroke-dasharray:none"
       id="path3015" />
    <path
       inkscape:connector-curvature="0"
       d="m 240.02079,669.94786 c 12.6759,-7.31799 28.98354,-2.94872 36.30153,9.72719 7.31799,12.6759 2.94872,28.98354 -9.72719,36.30153 -12.6759,7.31943 -28.98354,2.94872 -36.30153,-9.72719 -7.31799,-12.6759 -2.94872,-28.98211 9.72719,-36.30153 z"
       style="fill:none;stroke:#000000;stroke-width:0.26999938000000001;stroke-linecap:butt;stroke-linejoin:miter;stroke-miterlimit:2.61310004999999990;stroke-opacity:1;stroke-dasharray:none"
       id="path3017" />
    <path
       inkscape:connector-curvature="0"
       d="m 250.56156,688.20553 c 2.62013,-1.51239 5.99071,-0.6084 7.50309,2.01173 1.51239,2.61869 0.60984,5.98927 -2.01029,7.50165 -2.62013,1.51239 -5.99071,0.60984 -7.50309,-2.01029 -1.51239,-2.62013 -0.6084,-5.98927 2.01029,-7.50309 z"
       style="fill:none;stroke:#000000;stroke-width:0.26999938000000001;stroke-linecap:butt;stroke-linejoin:miter;stroke-miterlimit:2.61310004999999990;stroke-opacity:1;stroke-dasharray:none"
       id="path3019" />
    <path
       inkscape:connector-curvature="0"
       d="m 246.22099,680.68809 c 6.84591,-3.95172 15.61171,-1.66162 19.51464,5.09963 3.90293,6.75981 1.50377,15.49692 -5.3407,19.45007 -6.84591,3.95028 -15.61171,1.66018 -19.51464,-5.09964 -3.90293,-6.76124 -1.50377,-15.49835 5.3407,-19.45006 z"
       style="fill:none;stroke:#000000;stroke-width:0.26999938000000001;stroke-linecap:butt;stroke-linejoin:miter;stroke-miterlimit:2.61310004999999990;stroke-opacity:1;stroke-dasharray:none"
       id="path3021" />
    <path
       inkscape:connector-curvature="0"
       d="m 155.75915,852.41132 c 0,-3.02506 2.4666,-5.49237 5.49137,-5.49237 3.02477,0 5.49279,2.46731 5.49279,5.49237 0,3.02506 -2.46802,5.49194 -5.49279,5.49194 -3.02477,0 -5.49137,-2.46688 -5.49137,-5.49194 z"
       style="fill:none;stroke:#000000;stroke-width:0.26999938000000001;stroke-linecap:butt;stroke-linejoin:miter;stroke-miterlimit:2.61310004999999990;stroke-opacity:1;stroke-dasharray:none"
       id="path3023" />
    <path
       inkscape:connector-curvature="0"
       d="m 147.07801,852.41075 c 0,-7.90372 6.36665,-14.35015 14.17251,-14.35015 7.80585,0 14.17394,6.44643 14.17394,14.35072 0,7.90372 -6.36809,14.35015 -14.17394,14.35015 -7.80586,0 -14.17251,-6.44643 -14.17251,-14.35072 z"
       style="fill:none;stroke:#000000;stroke-width:0.26999938000000001;stroke-linecap:butt;stroke-linejoin:miter;stroke-miterlimit:2.61310004999999990;stroke-opacity:1;stroke-dasharray:none"
       id="path3025" />
    <path
       inkscape:connector-curvature="0"
       d="m 155.75915,639.81352 c 0,-3.0262 2.4666,-5.49279 5.49137,-5.49279 3.02477,0 5.49279,2.46659 5.49279,5.49279 0,3.02477 -2.46802,5.49137 -5.49279,5.49137 -3.02477,0 -5.49137,-2.4666 -5.49137,-5.49137 z"
       style="fill:none;stroke:#000000;stroke-width:0.26999938000000001;stroke-linecap:butt;stroke-linejoin:miter;stroke-miterlimit:2.61310004999999990;stroke-opacity:1;stroke-dasharray:none"
       id="path3027" />
    <path
       inkscape:connector-curvature="0"
       d="m 147.07801,639.81352 c 0,-7.90486 6.36665,-14.35187 14.17251,-14.35187 7.80585,0 14.17394,6.44701 14.17394,14.35187 0,7.90343 -6.36809,14.35044 -14.17394,14.35044 -7.80586,0 -14.17251,-6.44701 -14.17251,-14.35044 z"
       style="fill:none;stroke:#000000;stroke-width:0.26999938000000001;stroke-linecap:butt;stroke-linejoin:miter;stroke-miterlimit:2.61310004999999990;stroke-opacity:1;stroke-dasharray:none"
       id="path3029" />
    <path
       inkscape:connector-curvature="0"
       d="m 250.56156,804.01774 c -2.61869,-1.51238 -3.52268,-4.88296 -2.01029,-7.50309 1.51382,-2.61869 4.88296,-3.52268 7.50309,-2.00886 2.62013,1.51238 3.52268,4.88153 2.01029,7.50166 -1.51238,2.62012 -4.88296,3.52267 -7.50309,2.01029 z"
       style="fill:none;stroke:#000000;stroke-width:0.26999938000000001;stroke-linecap:butt;stroke-linejoin:miter;stroke-miterlimit:2.61310004999999990;stroke-opacity:1;stroke-dasharray:none"
       id="path3031" />
    <path
       inkscape:connector-curvature="0"
       d="m 246.22099,811.53518 c -6.84447,-3.95171 -9.24363,-12.68882 -5.3407,-19.44863 3.90293,-6.76125 12.67017,-9.05135 19.51464,-5.09964 6.84447,3.95172 9.24363,12.68882 5.3407,19.45007 -3.90293,6.75982 -12.66873,9.04992 -19.51464,5.0982 z"
       style="fill:none;stroke:#000000;stroke-width:0.26999938000000001;stroke-linecap:butt;stroke-linejoin:miter;stroke-miterlimit:2.61310004999999990;stroke-opacity:1;stroke-dasharray:none"
       id="path3033" />
    <path
       inkscape:connector-curvature="0"
       d="m 66.446534,697.71891 c -2.61984,-1.51238 -3.52282,-4.88296 -2.01001,-7.50309 1.51224,-2.61869 4.88268,-3.52268 7.50195,-2.01029 2.62027,1.51238 3.52268,4.88296 2.01043,7.50309 -1.51224,2.61869 -4.88253,3.52268 -7.50237,2.01029 z"
       style="fill:none;stroke:#000000;stroke-width:0.26999938000000001;stroke-linecap:butt;stroke-linejoin:miter;stroke-miterlimit:2.61310004999999990;stroke-opacity:1;stroke-dasharray:none"
       id="path3035" />
    <path
       inkscape:connector-curvature="0"
       d="m 62.105964,705.23635 c -6.84491,-3.95171 -9.24392,-12.68882 -5.34099,-19.45007 3.90336,-6.75981 12.66916,-9.04991 19.51407,-5.09819 6.8449,3.95171 9.24434,12.68882 5.34156,19.45006 -3.90336,6.75982 -12.66974,9.04992 -19.51464,5.0982 z"
       style="fill:none;stroke:#000000;stroke-width:0.26999938000000001;stroke-linecap:butt;stroke-linejoin:miter;stroke-miterlimit:2.61310004999999990;stroke-opacity:1;stroke-dasharray:none"
       id="path3037" />
    <path
       inkscape:connector-curvature="0"
       d="m 695.70198,931.3588 c -102.03,58.90666 -233.29035,23.73533 -292.19873,-78.29446 -58.90695,-102.03028 -23.73468,-233.29063 78.29532,-292.19901 102.03,-58.90695 233.29034,-23.73469 292.19729,78.29531 58.90695,102.03 23.73612,233.29049 -78.29388,292.19816 z"
       style="fill:none;stroke:#000000;stroke-width:0.26999938000000001;stroke-linecap:butt;stroke-linejoin:miter;stroke-miterlimit:2.61310004999999990;stroke-opacity:1;stroke-dasharray:none"
       id="path3041" />
    <path
       inkscape:connector-curvature="0"
       d="m 565.36284,794.18724 c -2.61869,1.51238 -3.52268,4.88297 -2.0103,7.50309 1.51239,2.61869 4.88297,3.52125 7.5031,2.00886 l 76.71405,-44.29106 c 2.62013,-1.51238 3.52268,-4.88153 2.0103,-7.50165 -1.51239,-2.62013 -4.88297,-3.52268 -7.50166,-2.0103 l -76.71549,44.29106 z"
       style="fill:none;stroke:#000000;stroke-width:0.26999938000000001;stroke-linecap:butt;stroke-linejoin:miter;stroke-miterlimit:2.61310004999999990;stroke-opacity:1;stroke-dasharray:none"
       id="path3043" />
    <path
       inkscape:connector-curvature="0"
       d="m 594.50853,756.08491 c -5.4928,3.17112 -12.55968,1.27706 -15.73081,-4.21431 -3.17257,-5.49279 -1.2785,-12.55968 4.2143,-15.73224 5.4928,-3.17113 12.55968,-1.27706 15.73081,4.21574 3.17113,5.49279 1.27849,12.55968 -4.2143,15.73081 z"
       style="fill:none;stroke:#000000;stroke-width:0.26999938000000001;stroke-linecap:butt;stroke-linejoin:miter;stroke-miterlimit:2.61310004999999990;stroke-opacity:1;stroke-dasharray:none"
       id="path3045" />
    <path
       inkscape:connector-curvature="0"
       d="m 529.93085,732.81513 c -2.62013,1.51239 -3.52268,4.88297 -2.01029,7.50309 1.51095,2.62013 4.88153,3.52268 7.50165,2.0103 l 76.71406,-44.29106 c 2.62013,-1.51238 3.52268,-4.88296 2.01173,-7.50309 -1.51238,-2.62013 -4.8844,-3.52268 -7.50309,-2.0103 l -76.71406,44.29106 z"
       style="fill:none;stroke:#000000;stroke-width:0.26999938000000001;stroke-linecap:butt;stroke-linejoin:miter;stroke-miterlimit:2.61310004999999990;stroke-opacity:1;stroke-dasharray:none"
       id="path3047" />
    <path
       inkscape:connector-curvature="0"
       d="m 751.06329,658.74272 c -2.62013,1.51239 -5.99071,0.6084 -7.50309,-2.01029 -1.51239,-2.62013 -0.6084,-5.99071 2.01029,-7.50309 2.62013,-1.51239 5.99071,-0.6084 7.5031,2.01029 1.51238,2.62013 0.60983,5.99071 -2.0103,7.50309 z"
       style="fill:none;stroke:#000000;stroke-width:0.26999938000000001;stroke-linecap:butt;stroke-linejoin:miter;stroke-miterlimit:2.61310004999999990;stroke-opacity:1;stroke-dasharray:none"
       id="path3049" />
    <path
       inkscape:connector-curvature="0"
       d="m 583.25748,930.36399 c 0,-3.02506 2.46802,-5.49194 5.49279,-5.49194 3.02477,0 5.49137,2.46688 5.49137,5.49194 0,3.02505 -2.4666,5.49236 -5.49137,5.49236 -3.02477,0 -5.49279,-2.46731 -5.49279,-5.49236 z"
       style="fill:none;stroke:#000000;stroke-width:0.26999938000000001;stroke-linecap:butt;stroke-linejoin:miter;stroke-miterlimit:2.61310004999999990;stroke-opacity:1;stroke-dasharray:none"
       id="path3051" />
    <path
       inkscape:connector-curvature="0"
       d="m 431.93005,649.22934 c 2.61869,1.51238 3.52268,4.88296 2.00886,7.50309 -1.51095,2.61869 -4.88153,3.52268 -7.50166,2.01029 -2.62012,-1.51238 -3.52267,-4.88296 -2.01029,-7.50309 1.51238,-2.61869 4.88296,-3.52268 7.50309,-2.01029 z"
       style="fill:none;stroke:#000000;stroke-width:0.26999938000000001;stroke-linecap:butt;stroke-linejoin:miter;stroke-miterlimit:2.61310004999999990;stroke-opacity:1;stroke-dasharray:none"
       id="path3053" />
    <path
       inkscape:connector-curvature="0"
       d="m 483.40565,776.24669 c 12.67591,-7.31799 28.98211,-2.94872 36.30154,9.72718 7.31799,12.67591 2.94872,28.98355 -9.72719,36.30297 -12.6759,7.31785 -28.98354,2.94815 -36.30153,-9.72718 -7.31943,-12.67591 -2.94872,-28.98355 9.72718,-36.30297 z"
       style="fill:none;stroke:#000000;stroke-width:0.26999938000000001;stroke-linecap:butt;stroke-linejoin:miter;stroke-miterlimit:2.61310004999999990;stroke-opacity:1;stroke-dasharray:none"
       id="path3055" />
    <path
       inkscape:connector-curvature="0"
       d="m 493.94643,794.50579 c 2.61869,-1.51239 5.98927,-0.60983 7.50166,2.01029 1.51238,2.6187 0.60983,5.98928 -2.0103,7.50166 -2.61869,1.51238 -5.98927,0.60983 -7.50165,-2.01029 -1.51239,-2.62013 -0.60984,-5.98928 2.01029,-7.50166 z"
       style="fill:none;stroke:#000000;stroke-width:0.26999938000000001;stroke-linecap:butt;stroke-linejoin:miter;stroke-miterlimit:2.61310004999999990;stroke-opacity:1;stroke-dasharray:none"
       id="path3057" />
    <path
       inkscape:connector-curvature="0"
       d="m 489.60586,786.98691 c 6.84447,-3.95171 15.61027,-1.66161 19.51464,5.09964 3.90293,6.75981 1.50377,15.49692 -5.34214,19.45007 -6.84447,3.95171 -15.61027,1.66018 -19.51464,-5.09964 -3.90292,-6.75981 -1.50234,-15.49835 5.34214,-19.45007 z"
       style="fill:none;stroke:#000000;stroke-width:0.26999938000000001;stroke-linecap:butt;stroke-linejoin:miter;stroke-miterlimit:2.61310004999999990;stroke-opacity:1;stroke-dasharray:none"
       id="path3059" />
    <path
       inkscape:connector-curvature="0"
       d="m 667.52054,669.94786 c 12.67591,-7.31799 28.98355,-2.94872 36.30154,9.72719 7.31799,12.6759 2.94872,28.98354 -9.72719,36.30153 -12.67591,7.31943 -28.98354,2.94872 -36.30153,-9.72719 -7.31799,-12.6759 -2.94872,-28.98211 9.72718,-36.30153 z"
       style="fill:none;stroke:#000000;stroke-width:0.26999938000000001;stroke-linecap:butt;stroke-linejoin:miter;stroke-miterlimit:2.61310004999999990;stroke-opacity:1;stroke-dasharray:none"
       id="path3061" />
    <path
       inkscape:connector-curvature="0"
       d="m 678.06132,688.20553 c 2.62013,-1.51239 5.99071,-0.6084 7.50309,2.01173 1.51239,2.61869 0.6084,5.98927 -2.01029,7.50165 -2.62013,1.51239 -5.99071,0.60984 -7.5031,-2.01029 -1.51238,-2.62013 -0.60839,-5.98927 2.0103,-7.50309 z"
       style="fill:none;stroke:#000000;stroke-width:0.26999938000000001;stroke-linecap:butt;stroke-linejoin:miter;stroke-miterlimit:2.61310004999999990;stroke-opacity:1;stroke-dasharray:none"
       id="path3063" />
    <path
       inkscape:connector-curvature="0"
       d="m 673.72075,680.68809 c 6.84447,-3.95172 15.61171,-1.66162 19.51464,5.09963 3.90292,6.75981 1.50377,15.49692 -5.3407,19.45007 -6.84447,3.95028 -15.61171,1.66018 -19.51464,-5.09964 -3.90293,-6.76124 -1.50378,-15.49835 5.3407,-19.45006 z"
       style="fill:none;stroke:#000000;stroke-width:0.26999938000000001;stroke-linecap:butt;stroke-linejoin:miter;stroke-miterlimit:2.61310004999999990;stroke-opacity:1;stroke-dasharray:none"
       id="path3065" />
    <path
       inkscape:connector-curvature="0"
       d="m 583.25748,852.41132 c 0,-3.02506 2.46802,-5.49237 5.49279,-5.49237 3.02477,0 5.49137,2.46731 5.49137,5.49237 0,3.02506 -2.4666,5.49194 -5.49137,5.49194 -3.02477,0 -5.49279,-2.46688 -5.49279,-5.49194 z"
       style="fill:none;stroke:#000000;stroke-width:0.26999938000000001;stroke-linecap:butt;stroke-linejoin:miter;stroke-miterlimit:2.61310004999999990;stroke-opacity:1;stroke-dasharray:none"
       id="path3067" />
    <path
       inkscape:connector-curvature="0"
       d="m 574.57777,852.41075 c 0,-7.90372 6.36665,-14.35015 14.1725,-14.35015 7.80586,0 14.17251,6.44643 14.17251,14.35072 0,7.90372 -6.36665,14.35015 -14.17251,14.35015 -7.80585,0 -14.1725,-6.44643 -14.1725,-14.35072 z"
       style="fill:none;stroke:#000000;stroke-width:0.26999938000000001;stroke-linecap:butt;stroke-linejoin:miter;stroke-miterlimit:2.61310004999999990;stroke-opacity:1;stroke-dasharray:none"
       id="path3069" />
    <path
       inkscape:connector-curvature="0"
       d="m 583.25748,639.81352 c 0,-3.0262 2.46802,-5.49279 5.49279,-5.49279 3.02477,0 5.49137,2.46659 5.49137,5.49279 0,3.02477 -2.4666,5.49137 -5.49137,5.49137 -3.02477,0 -5.49279,-2.4666 -5.49279,-5.49137 z"
       style="fill:none;stroke:#000000;stroke-width:0.26999938000000001;stroke-linecap:butt;stroke-linejoin:miter;stroke-miterlimit:2.61310004999999990;stroke-opacity:1;stroke-dasharray:none"
       id="path3071" />
    <path
       inkscape:connector-curvature="0"
       d="m 574.57777,639.81352 c 0,-7.90486 6.36665,-14.35187 14.1725,-14.35187 7.80586,0 14.17251,6.44701 14.17251,14.35187 0,7.90343 -6.36665,14.35044 -14.17251,14.35044 -7.80585,0 -14.1725,-6.44701 -14.1725,-14.35044 z"
       style="fill:none;stroke:#000000;stroke-width:0.26999938000000001;stroke-linecap:butt;stroke-linejoin:miter;stroke-miterlimit:2.61310004999999990;stroke-opacity:1;stroke-dasharray:none"
       id="path3073" />
    <path
       inkscape:connector-curvature="0"
       d="m 678.06275,804.01774 c -2.62012,-1.51238 -3.52411,-4.88296 -2.01173,-7.50309 1.51382,-2.61869 4.88297,-3.52268 7.5031,-2.00886 2.62012,1.51238 3.52268,4.88153 2.01029,7.50166 -1.51238,2.62012 -4.88296,3.52267 -7.50166,2.01029 z"
       style="fill:none;stroke:#000000;stroke-width:0.26999938000000001;stroke-linecap:butt;stroke-linejoin:miter;stroke-miterlimit:2.61310004999999990;stroke-opacity:1;stroke-dasharray:none"
       id="path3075" />
    <path
       inkscape:connector-curvature="0"
       d="m 673.72218,811.53518 c -6.84591,-3.95171 -9.24506,-12.68882 -5.34213,-19.44863 3.90293,-6.76125 12.67017,-9.05135 19.51464,-5.09964 6.84447,3.95172 9.24362,12.68882 5.3407,19.45007 -3.90293,6.75982 -12.66874,9.04992 -19.51321,5.0982 z"
       style="fill:none;stroke:#000000;stroke-width:0.26999938000000001;stroke-linecap:butt;stroke-linejoin:miter;stroke-miterlimit:2.61310004999999990;stroke-opacity:1;stroke-dasharray:none"
       id="path3077" />
    <path
       inkscape:connector-curvature="0"
       d="m 493.94643,697.71891 c -2.62013,-1.51238 -3.52268,-4.88296 -2.01029,-7.50309 1.51238,-2.61869 4.88296,-3.52268 7.50165,-2.01029 2.62013,1.51238 3.52268,4.88296 2.01173,7.50309 -1.51382,2.61869 -4.88296,3.52268 -7.50309,2.01029 z"
       style="fill:none;stroke:#000000;stroke-width:0.26999938000000001;stroke-linecap:butt;stroke-linejoin:miter;stroke-miterlimit:2.61310004999999990;stroke-opacity:1;stroke-dasharray:none"
       id="path3079" />
    <path
       inkscape:connector-curvature="0"
       d="m 489.60586,705.23635 c -6.84448,-3.95171 -9.24506,-12.68882 -5.34214,-19.45007 3.90437,-6.75981 12.67017,-9.04991 19.51464,-5.09819 6.84591,3.95171 9.24507,12.68882 5.34214,19.45006 -3.90293,6.75982 -12.67017,9.04992 -19.51464,5.0982 z"
       style="fill:none;stroke:#000000;stroke-width:0.26999938000000001;stroke-linecap:butt;stroke-linejoin:miter;stroke-miterlimit:2.61310004999999990;stroke-opacity:1;stroke-dasharray:none"
       id="path3081" />
    <path
       inkscape:connector-curvature="0"
       d="M 268.20222,503.85962 C 166.17222,562.76657 34.911306,527.5943 -23.995787,425.5643 -82.903024,323.5343 -47.731674,192.27396 54.298094,133.36557 156.32881,74.458623 287.58916,109.63089 346.49754,211.65945 c 58.90695,102.03144 23.73468,233.29178 -78.29532,292.20017 z"
       style="fill:none;stroke:#000000;stroke-width:0.26999938000000001;stroke-linecap:butt;stroke-linejoin:miter;stroke-miterlimit:2.61310004999999990;stroke-opacity:1;stroke-dasharray:none"
       id="path3085" />
    <path
       inkscape:connector-curvature="0"
       d="m 137.86308,366.68748 c -2.61869,1.51239 -3.52268,4.88297 -2.01029,7.5031 1.51382,2.61869 4.88296,3.52267 7.50309,2.01029 l 76.71406,-44.29106 c 2.62012,-1.51382 3.52411,-4.88296 2.01173,-7.50309 -1.51382,-2.62013 -4.8844,-3.52268 -7.5031,-2.01029 l -76.71549,44.29105 z"
       style="fill:none;stroke:#000000;stroke-width:0.26999938000000001;stroke-linecap:butt;stroke-linejoin:miter;stroke-miterlimit:2.61310004999999990;stroke-opacity:1;stroke-dasharray:none"
       id="path3087" />
    <path
       inkscape:connector-curvature="0"
       d="m 167.00877,328.58515 c -5.4928,3.17113 -12.55968,1.27849 -15.73081,-4.2143 -3.17113,-5.4928 -1.27849,-12.55968 4.2143,-15.73081 5.4928,-3.17113 12.55968,-1.2785 15.73081,4.2143 3.17113,5.4928 1.2785,12.55968 -4.2143,15.73081 z"
       style="fill:none;stroke:#000000;stroke-width:0.26999938000000001;stroke-linecap:butt;stroke-linejoin:miter;stroke-miterlimit:2.61310004999999990;stroke-opacity:1;stroke-dasharray:none"
       id="path3089" />
    <path
       inkscape:connector-curvature="0"
       d="m 102.4311,305.31538 c -2.620126,1.51381 -3.522676,4.88296 -2.01173,7.50309 1.51382,2.62012 4.8844,3.52268 7.50309,2.01029 l 76.71549,-44.29106 c 2.61869,-1.51238 3.52268,-4.88296 2.0103,-7.50309 -1.51239,-2.61869 -4.88297,-3.52268 -7.5031,-2.01029 l -76.71405,44.29106 z"
       style="fill:none;stroke:#000000;stroke-width:0.26999938000000001;stroke-linecap:butt;stroke-linejoin:miter;stroke-miterlimit:2.61310004999999990;stroke-opacity:1;stroke-dasharray:none"
       id="path3091" />
    <path
       inkscape:connector-curvature="0"
       d="m 323.56353,231.24297 c -2.62012,1.51238 -5.9907,0.60983 -7.50309,-2.0103 -1.51238,-2.61869 -0.6084,-5.9907 2.0103,-7.50165 2.62012,-1.51239 5.9907,-0.60984 7.50309,2.01029 1.51238,2.61869 0.60983,5.98927 -2.0103,7.50166 z"
       style="fill:none;stroke:#000000;stroke-width:0.26999938000000001;stroke-linecap:butt;stroke-linejoin:miter;stroke-miterlimit:2.61310004999999990;stroke-opacity:1;stroke-dasharray:none"
       id="path3093" />
    <path
       inkscape:connector-curvature="0"
       d="m 155.75915,502.8638 c 0,-3.02477 2.4666,-5.49136 5.49137,-5.49136 3.02477,0 5.49279,2.46659 5.49279,5.49136 0,3.02477 -2.46802,5.4928 -5.49279,5.4928 -3.02477,0 -5.49137,-2.46803 -5.49137,-5.4928 z"
       style="fill:none;stroke:#000000;stroke-width:0.26999938000000001;stroke-linecap:butt;stroke-linejoin:miter;stroke-miterlimit:2.61310004999999990;stroke-opacity:1;stroke-dasharray:none"
       id="path3095" />
    <path
       inkscape:connector-curvature="0"
       d="m 4.4297249,221.73102 c 2.619841,1.51095 3.522823,4.88296 2.010008,7.50165 -1.512241,2.62013 -4.882534,3.52268 -7.501801,2.0103 -2.61984,-1.51239 -3.522823,-4.88297 -2.010582,-7.50166 1.512816,-2.62013 4.882535,-3.52268 7.502375,-2.01029 z"
       style="fill:none;stroke:#000000;stroke-width:0.26999938000000001;stroke-linecap:butt;stroke-linejoin:miter;stroke-miterlimit:2.61310004999999990;stroke-opacity:1;stroke-dasharray:none"
       id="path3097" />
    <path
       inkscape:connector-curvature="0"
       d="m 55.905044,348.74693 c 12.6759,-7.31799 28.9834,-2.94872 36.30239,9.72719 7.31799,12.6759 2.94872,28.98354 -9.72747,36.30153 -12.67591,7.31943 -28.9834,2.95016 -36.301967,-9.72575 -7.31799,-12.67591 -2.948719,-28.98355 9.727047,-36.30297 z"
       style="fill:none;stroke:#000000;stroke-width:0.26999938000000001;stroke-linecap:butt;stroke-linejoin:miter;stroke-miterlimit:2.61310004999999990;stroke-opacity:1;stroke-dasharray:none"
       id="path3099" />
    <path
       inkscape:connector-curvature="0"
       d="m 66.446534,367.00603 c 2.61927,-1.51238 5.99013,-0.60983 7.50237,2.0103 1.51225,2.62012 0.60926,5.98927 -2.01043,7.50165 -2.61984,1.51382 -5.98971,0.60984 -7.50238,-2.01029 -1.51238,-2.62013 -0.6094,-5.98927 2.01044,-7.50166 z"
       style="fill:none;stroke:#000000;stroke-width:0.26999938000000001;stroke-linecap:butt;stroke-linejoin:miter;stroke-miterlimit:2.61310004999999990;stroke-opacity:1;stroke-dasharray:none"
       id="path3101" />
    <path
       inkscape:connector-curvature="0"
       d="m 62.105964,359.48716 c 6.8449,-3.95172 15.61128,-1.66162 19.51464,5.09963 3.90278,6.75981 1.50334,15.49692 -5.34156,19.45007 -6.84491,3.95171 -15.61128,1.66161 -19.51407,-5.09964 -3.9035,-6.76124 -1.50392,-15.49835 5.34099,-19.45006 z"
       style="fill:none;stroke:#000000;stroke-width:0.26999938000000001;stroke-linecap:butt;stroke-linejoin:miter;stroke-miterlimit:2.61310004999999990;stroke-opacity:1;stroke-dasharray:none"
       id="path3103" />
    <path
       inkscape:connector-curvature="0"
       d="m 240.02079,242.4481 c 12.6759,-7.31799 28.98354,-2.94872 36.30153,9.72719 7.31799,12.67591 2.94872,28.98354 -9.72719,36.30153 -12.6759,7.31943 -28.98354,2.94872 -36.30153,-9.72575 -7.31799,-12.6759 -2.94872,-28.98498 9.72719,-36.30297 z"
       style="fill:none;stroke:#000000;stroke-width:0.26999938000000001;stroke-linecap:butt;stroke-linejoin:miter;stroke-miterlimit:2.61310004999999990;stroke-opacity:1;stroke-dasharray:none"
       id="path3105" />
    <path
       inkscape:connector-curvature="0"
       d="m 250.56156,260.70577 c 2.62013,-1.51239 5.99071,-0.6084 7.50309,2.01029 1.51239,2.62013 0.60984,5.99071 -2.01029,7.5031 -2.62013,1.51238 -5.99071,0.60983 -7.50309,-2.0103 -1.51239,-2.62013 -0.6084,-5.98927 2.01029,-7.50309 z"
       style="fill:none;stroke:#000000;stroke-width:0.26999938000000001;stroke-linecap:butt;stroke-linejoin:miter;stroke-miterlimit:2.61310004999999990;stroke-opacity:1;stroke-dasharray:none"
       id="path3107" />
    <path
       inkscape:connector-curvature="0"
       d="m 246.22099,253.18833 c 6.84591,-3.95172 15.61171,-1.66162 19.51464,5.09963 3.90293,6.75982 1.50377,15.49692 -5.3407,19.44864 -6.84591,3.95315 -15.61171,1.66161 -19.51464,-5.0982 -3.90293,-6.76125 -1.50377,-15.49836 5.3407,-19.45007 z"
       style="fill:none;stroke:#000000;stroke-width:0.26999938000000001;stroke-linecap:butt;stroke-linejoin:miter;stroke-miterlimit:2.61310004999999990;stroke-opacity:1;stroke-dasharray:none"
       id="path3109" />
    <path
       inkscape:connector-curvature="0"
       d="m 155.75915,424.91142 c 0,-3.02477 2.4666,-5.4928 5.49137,-5.4928 3.02477,0 5.49279,2.46803 5.49279,5.4928 0,3.02477 -2.46802,5.4928 -5.49279,5.4928 -3.02477,0 -5.49137,-2.46803 -5.49137,-5.4928 z"
       style="fill:none;stroke:#000000;stroke-width:0.26999938000000001;stroke-linecap:butt;stroke-linejoin:miter;stroke-miterlimit:2.61310004999999990;stroke-opacity:1;stroke-dasharray:none"
       id="path3111" />
    <path
       inkscape:connector-curvature="0"
       d="m 147.07801,424.91142 c 0,-7.90343 6.36665,-14.35043 14.17251,-14.35043 7.80585,0 14.17394,6.447 14.17394,14.35043 0,7.90343 -6.36809,14.35044 -14.17394,14.35044 -7.80586,0 -14.17251,-6.44701 -14.17251,-14.35044 z"
       style="fill:none;stroke:#000000;stroke-width:0.26999938000000001;stroke-linecap:butt;stroke-linejoin:miter;stroke-miterlimit:2.61310004999999990;stroke-opacity:1;stroke-dasharray:none"
       id="path3113" />
    <path
       inkscape:connector-curvature="0"
       d="m 155.75915,212.31377 c 0,-3.02621 2.4666,-5.4928 5.49137,-5.4928 3.02477,0 5.49279,2.46659 5.49279,5.4928 0,3.02477 -2.46802,5.49136 -5.49279,5.49136 -3.02477,0 -5.49137,-2.46659 -5.49137,-5.49136 z"
       style="fill:none;stroke:#000000;stroke-width:0.26999938000000001;stroke-linecap:butt;stroke-linejoin:miter;stroke-miterlimit:2.61310004999999990;stroke-opacity:1;stroke-dasharray:none"
       id="path3115" />
    <path
       inkscape:connector-curvature="0"
       d="m 147.07801,212.31377 c 0,-7.90486 6.36665,-14.35187 14.17251,-14.35187 7.80585,0 14.17394,6.44701 14.17394,14.35187 0,7.90343 -6.36809,14.35043 -14.17394,14.35043 -7.80586,0 -14.17251,-6.447 -14.17251,-14.35043 z"
       style="fill:none;stroke:#000000;stroke-width:0.26999938000000001;stroke-linecap:butt;stroke-linejoin:miter;stroke-miterlimit:2.61310004999999990;stroke-opacity:1;stroke-dasharray:none"
       id="path3117" />
    <path
       inkscape:connector-curvature="0"
       d="m 250.56156,376.51798 c -2.61869,-1.51238 -3.52268,-4.88296 -2.01029,-7.50309 1.51382,-2.61869 4.88296,-3.52124 7.50309,-2.00886 2.62013,1.51095 3.52268,4.88153 2.01029,7.50166 -1.51238,2.62013 -4.88296,3.52268 -7.50309,2.01029 z"
       style="fill:none;stroke:#000000;stroke-width:0.26999938000000001;stroke-linecap:butt;stroke-linejoin:miter;stroke-miterlimit:2.61310004999999990;stroke-opacity:1;stroke-dasharray:none"
       id="path3119" />
    <path
       inkscape:connector-curvature="0"
       d="m 246.22099,384.03542 c -6.84447,-3.95171 -9.24363,-12.68882 -5.3407,-19.44863 3.90293,-6.76125 12.67017,-9.05135 19.51464,-5.09963 6.84447,3.95171 9.24363,12.68882 5.3407,19.45006 -3.90293,6.76125 -12.66873,9.05135 -19.51464,5.0982 z"
       style="fill:none;stroke:#000000;stroke-width:0.26999938000000001;stroke-linecap:butt;stroke-linejoin:miter;stroke-miterlimit:2.61310004999999990;stroke-opacity:1;stroke-dasharray:none"
       id="path3121" />
    <path
       inkscape:connector-curvature="0"
       d="m 66.446534,270.21916 c -2.61984,-1.51239 -3.52282,-4.88297 -2.01001,-7.5031 1.51224,-2.61869 4.88268,-3.52268 7.50195,-2.01029 2.62027,1.51238 3.52268,4.88296 2.01043,7.50309 -1.51224,2.62013 -4.88253,3.52268 -7.50237,2.0103 z"
       style="fill:none;stroke:#000000;stroke-width:0.26999938000000001;stroke-linecap:butt;stroke-linejoin:miter;stroke-miterlimit:2.61310004999999990;stroke-opacity:1;stroke-dasharray:none"
       id="path3123" />
    <path
       inkscape:connector-curvature="0"
       d="m 62.105964,277.7366 c -6.84491,-3.95172 -9.24392,-12.68882 -5.34099,-19.44864 3.90336,-6.76125 12.66916,-9.05135 19.51407,-5.09963 6.8449,3.95171 9.24434,12.68882 5.34156,19.45007 -3.90336,6.75981 -12.66974,9.04991 -19.51464,5.0982 z"
       style="fill:none;stroke:#000000;stroke-width:0.26999938000000001;stroke-linecap:butt;stroke-linejoin:miter;stroke-miterlimit:2.61310004999999990;stroke-opacity:1;stroke-dasharray:none"
       id="path3125" />
    <path
       inkscape:connector-curvature="0"
       d="m 695.70198,503.85962 c -102.03,58.90695 -233.29035,23.73468 -292.19873,-78.29532 -58.90695,-102.03 -23.73468,-233.29034 78.29532,-292.19873 102.03,-58.906947 233.29034,-23.73468 292.19729,78.29388 58.90695,102.03144 23.73612,233.29178 -78.29388,292.20017 z"
       style="fill:none;stroke:#000000;stroke-width:0.26999938000000001;stroke-linecap:butt;stroke-linejoin:miter;stroke-miterlimit:2.61310004999999990;stroke-opacity:1;stroke-dasharray:none"
       id="path3129" />
    <path
       inkscape:connector-curvature="0"
       d="m 565.36284,366.68748 c -2.61869,1.51239 -3.52268,4.88297 -2.0103,7.5031 1.51239,2.61869 4.88297,3.52267 7.5031,2.01029 l 76.71405,-44.29106 c 2.62013,-1.51382 3.52268,-4.88296 2.0103,-7.50309 -1.51239,-2.62013 -4.88297,-3.52268 -7.50166,-2.01029 l -76.71549,44.29105 z"
       style="fill:none;stroke:#000000;stroke-width:0.26999938000000001;stroke-linecap:butt;stroke-linejoin:miter;stroke-miterlimit:2.61310004999999990;stroke-opacity:1;stroke-dasharray:none"
       id="path3131" />
    <path
       inkscape:connector-curvature="0"
       d="m 594.50853,328.58515 c -5.4928,3.17113 -12.55968,1.27849 -15.73081,-4.2143 -3.17257,-5.4928 -1.2785,-12.55968 4.2143,-15.73081 5.4928,-3.17113 12.55968,-1.2785 15.73081,4.2143 3.17113,5.4928 1.27849,12.55968 -4.2143,15.73081 z"
       style="fill:none;stroke:#000000;stroke-width:0.26999938000000001;stroke-linecap:butt;stroke-linejoin:miter;stroke-miterlimit:2.61310004999999990;stroke-opacity:1;stroke-dasharray:none"
       id="path3133" />
    <path
       inkscape:connector-curvature="0"
       d="m 529.93085,305.31538 c -2.62013,1.51381 -3.52268,4.88296 -2.01029,7.50309 1.51095,2.62012 4.88153,3.52268 7.50165,2.01029 l 76.71406,-44.29106 c 2.62013,-1.51238 3.52268,-4.88296 2.01173,-7.50309 -1.51238,-2.61869 -4.8844,-3.52268 -7.50309,-2.01029 l -76.71406,44.29106 z"
       style="fill:none;stroke:#000000;stroke-width:0.26999938000000001;stroke-linecap:butt;stroke-linejoin:miter;stroke-miterlimit:2.61310004999999990;stroke-opacity:1;stroke-dasharray:none"
       id="path3135" />
    <path
       inkscape:connector-curvature="0"
       d="m 751.06329,231.24297 c -2.62013,1.51238 -5.99071,0.60983 -7.50309,-2.0103 -1.51239,-2.61869 -0.6084,-5.9907 2.01029,-7.50165 2.62013,-1.51239 5.99071,-0.60984 7.5031,2.01029 1.51238,2.61869 0.60983,5.98927 -2.0103,7.50166 z"
       style="fill:none;stroke:#000000;stroke-width:0.26999938000000001;stroke-linecap:butt;stroke-linejoin:miter;stroke-miterlimit:2.61310004999999990;stroke-opacity:1;stroke-dasharray:none"
       id="path3137" />
    <path
       inkscape:connector-curvature="0"
       d="m 583.25748,502.8638 c 0,-3.02477 2.46802,-5.49136 5.49279,-5.49136 3.02477,0 5.49137,2.46659 5.49137,5.49136 0,3.02477 -2.4666,5.4928 -5.49137,5.4928 -3.02477,0 -5.49279,-2.46803 -5.49279,-5.4928 z"
       style="fill:none;stroke:#000000;stroke-width:0.26999938000000001;stroke-linecap:butt;stroke-linejoin:miter;stroke-miterlimit:2.61310004999999990;stroke-opacity:1;stroke-dasharray:none"
       id="path3139" />
    <path
       inkscape:connector-curvature="0"
       d="m 431.93005,221.73102 c 2.61869,1.51095 3.52268,4.88296 2.00886,7.50165 -1.51095,2.62013 -4.88153,3.52268 -7.50166,2.0103 -2.62012,-1.51239 -3.52267,-4.88297 -2.01029,-7.50166 1.51238,-2.62013 4.88296,-3.52268 7.50309,-2.01029 z"
       style="fill:none;stroke:#000000;stroke-width:0.26999938000000001;stroke-linecap:butt;stroke-linejoin:miter;stroke-miterlimit:2.61310004999999990;stroke-opacity:1;stroke-dasharray:none"
       id="path3141" />
    <path
       inkscape:connector-curvature="0"
       d="m 483.40565,348.74693 c 12.67591,-7.31799 28.98211,-2.94872 36.30154,9.72719 7.31799,12.6759 2.94872,28.98354 -9.72719,36.30153 -12.6759,7.31943 -28.98354,2.95016 -36.30153,-9.72575 -7.31943,-12.67591 -2.94872,-28.98355 9.72718,-36.30297 z"
       style="fill:none;stroke:#000000;stroke-width:0.26999938000000001;stroke-linecap:butt;stroke-linejoin:miter;stroke-miterlimit:2.61310004999999990;stroke-opacity:1;stroke-dasharray:none"
       id="path3143" />
    <path
       inkscape:connector-curvature="0"
       d="m 493.94643,367.00603 c 2.61869,-1.51238 5.98927,-0.60983 7.50166,2.0103 1.51238,2.62012 0.60983,5.98927 -2.0103,7.50165 -2.61869,1.51382 -5.98927,0.60984 -7.50165,-2.01029 -1.51239,-2.62013 -0.60984,-5.98927 2.01029,-7.50166 z"
       style="fill:none;stroke:#000000;stroke-width:0.26999938000000001;stroke-linecap:butt;stroke-linejoin:miter;stroke-miterlimit:2.61310004999999990;stroke-opacity:1;stroke-dasharray:none"
       id="path3145" />
    <path
       inkscape:connector-curvature="0"
       d="m 489.60586,359.48716 c 6.84447,-3.95172 15.61027,-1.66162 19.51464,5.09963 3.90293,6.75981 1.50377,15.49692 -5.34214,19.45007 -6.84447,3.95171 -15.61027,1.66161 -19.51464,-5.09964 -3.90292,-6.76124 -1.50234,-15.49835 5.34214,-19.45006 z"
       style="fill:none;stroke:#000000;stroke-width:0.26999938000000001;stroke-linecap:butt;stroke-linejoin:miter;stroke-miterlimit:2.61310004999999990;stroke-opacity:1;stroke-dasharray:none"
       id="path3147" />
    <path
       inkscape:connector-curvature="0"
       d="m 667.52054,242.4481 c 12.67591,-7.31799 28.98355,-2.94872 36.30154,9.72719 7.31799,12.67591 2.94872,28.98354 -9.72719,36.30153 -12.67591,7.31943 -28.98354,2.94872 -36.30153,-9.72575 -7.31799,-12.6759 -2.94872,-28.98498 9.72718,-36.30297 z"
       style="fill:none;stroke:#000000;stroke-width:0.26999938000000001;stroke-linecap:butt;stroke-linejoin:miter;stroke-miterlimit:2.61310004999999990;stroke-opacity:1;stroke-dasharray:none"
       id="path3149" />
    <path
       inkscape:connector-curvature="0"
       d="m 678.06132,260.70577 c 2.62013,-1.51239 5.99071,-0.6084 7.50309,2.01029 1.51239,2.62013 0.6084,5.99071 -2.01029,7.5031 -2.62013,1.51238 -5.99071,0.60983 -7.5031,-2.0103 -1.51238,-2.62013 -0.60839,-5.98927 2.0103,-7.50309 z"
       style="fill:none;stroke:#000000;stroke-width:0.26999938000000001;stroke-linecap:butt;stroke-linejoin:miter;stroke-miterlimit:2.61310004999999990;stroke-opacity:1;stroke-dasharray:none"
       id="path3151" />
    <path
       inkscape:connector-curvature="0"
       d="m 673.72075,253.18833 c 6.84447,-3.95172 15.61171,-1.66162 19.51464,5.09963 3.90292,6.75982 1.50377,15.49692 -5.3407,19.44864 -6.84447,3.95315 -15.61171,1.66161 -19.51464,-5.0982 -3.90293,-6.76125 -1.50378,-15.49836 5.3407,-19.45007 z"
       style="fill:none;stroke:#000000;stroke-width:0.26999938000000001;stroke-linecap:butt;stroke-linejoin:miter;stroke-miterlimit:2.61310004999999990;stroke-opacity:1;stroke-dasharray:none"
       id="path3153" />
    <path
       inkscape:connector-curvature="0"
       d="m 583.25748,424.91142 c 0,-3.02477 2.46802,-5.4928 5.49279,-5.4928 3.02477,0 5.49137,2.46803 5.49137,5.4928 0,3.02477 -2.4666,5.4928 -5.49137,5.4928 -3.02477,0 -5.49279,-2.46803 -5.49279,-5.4928 z"
       style="fill:none;stroke:#000000;stroke-width:0.26999938000000001;stroke-linecap:butt;stroke-linejoin:miter;stroke-miterlimit:2.61310004999999990;stroke-opacity:1;stroke-dasharray:none"
       id="path3155" />
    <path
       inkscape:connector-curvature="0"
       d="m 574.57777,424.91142 c 0,-7.90343 6.36665,-14.35043 14.1725,-14.35043 7.80586,0 14.17251,6.447 14.17251,14.35043 0,7.90343 -6.36665,14.35044 -14.17251,14.35044 -7.80585,0 -14.1725,-6.44701 -14.1725,-14.35044 z"
       style="fill:none;stroke:#000000;stroke-width:0.26999938000000001;stroke-linecap:butt;stroke-linejoin:miter;stroke-miterlimit:2.61310004999999990;stroke-opacity:1;stroke-dasharray:none"
       id="path3157" />
    <path
       inkscape:connector-curvature="0"
       d="m 583.25748,212.31377 c 0,-3.02621 2.46802,-5.4928 5.49279,-5.4928 3.02477,0 5.49137,2.46659 5.49137,5.4928 0,3.02477 -2.4666,5.49136 -5.49137,5.49136 -3.02477,0 -5.49279,-2.46659 -5.49279,-5.49136 z"
       style="fill:none;stroke:#000000;stroke-width:0.26999938000000001;stroke-linecap:butt;stroke-linejoin:miter;stroke-miterlimit:2.61310004999999990;stroke-opacity:1;stroke-dasharray:none"
       id="path3159" />
    <path
       inkscape:connector-curvature="0"
       d="m 574.57777,212.31377 c 0,-7.90486 6.36665,-14.35187 14.1725,-14.35187 7.80586,0 14.17251,6.44701 14.17251,14.35187 0,7.90343 -6.36665,14.35043 -14.17251,14.35043 -7.80585,0 -14.1725,-6.447 -14.1725,-14.35043 z"
       style="fill:none;stroke:#000000;stroke-width:0.26999938000000001;stroke-linecap:butt;stroke-linejoin:miter;stroke-miterlimit:2.61310004999999990;stroke-opacity:1;stroke-dasharray:none"
       id="path3161" />
    <path
       inkscape:connector-curvature="0"
       d="m 678.06275,376.51798 c -2.62012,-1.51238 -3.52411,-4.88296 -2.01173,-7.50309 1.51382,-2.61869 4.88297,-3.52124 7.5031,-2.00886 2.62012,1.51095 3.52268,4.88153 2.01029,7.50166 -1.51238,2.62013 -4.88296,3.52268 -7.50166,2.01029 z"
       style="fill:none;stroke:#000000;stroke-width:0.26999938000000001;stroke-linecap:butt;stroke-linejoin:miter;stroke-miterlimit:2.61310004999999990;stroke-opacity:1;stroke-dasharray:none"
       id="path3163" />
    <path
       inkscape:connector-curvature="0"
       d="m 673.72218,384.03542 c -6.84591,-3.95171 -9.24506,-12.68882 -5.34213,-19.44863 3.90293,-6.76125 12.67017,-9.05135 19.51464,-5.09963 6.84447,3.95171 9.24362,12.68882 5.3407,19.45006 -3.90293,6.76125 -12.66874,9.05135 -19.51321,5.0982 z"
       style="fill:none;stroke:#000000;stroke-width:0.26999938000000001;stroke-linecap:butt;stroke-linejoin:miter;stroke-miterlimit:2.61310004999999990;stroke-opacity:1;stroke-dasharray:none"
       id="path3165" />
    <path
       inkscape:connector-curvature="0"
       d="m 493.94643,270.21916 c -2.62013,-1.51239 -3.52268,-4.88297 -2.01029,-7.5031 1.51238,-2.61869 4.88296,-3.52268 7.50165,-2.01029 2.62013,1.51238 3.52268,4.88296 2.01173,7.50309 -1.51382,2.62013 -4.88296,3.52268 -7.50309,2.0103 z"
       style="fill:none;stroke:#000000;stroke-width:0.26999938000000001;stroke-linecap:butt;stroke-linejoin:miter;stroke-miterlimit:2.61310004999999990;stroke-opacity:1;stroke-dasharray:none"
       id="path3167" />
    <path
       inkscape:connector-curvature="0"
       d="m 489.60586,277.7366 c -6.84448,-3.95172 -9.24506,-12.68882 -5.34214,-19.44864 3.90437,-6.76125 12.67017,-9.05135 19.51464,-5.09963 6.84591,3.95171 9.24507,12.68882 5.34214,19.45007 -3.90293,6.75981 -12.67017,9.04991 -19.51464,5.0982 z"
       style="fill:none;stroke:#000000;stroke-width:0.26999938000000001;stroke-linecap:butt;stroke-linejoin:miter;stroke-miterlimit:2.61310004999999990;stroke-opacity:1;stroke-dasharray:none"
       id="path3169" />
    <path
       inkscape:connector-curvature="0"
       d="m 312.99263,482.75654 c -13.69182,0 -24.80369,11.11187 -24.80369,24.80225 l 0,49.60736 c 0,13.69038 11.11187,24.80225 24.80369,24.80225 l 124.01553,0 c 13.69182,0 24.80368,-11.11187 24.80368,-24.80225 l 0,-49.60736 c 0,-13.69038 -11.11186,-24.80225 -24.80368,-24.80225 l -124.01553,0 z"
       style="fill:none;stroke:#000000;stroke-width:0.26999938000000001;stroke-linecap:butt;stroke-linejoin:miter;stroke-miterlimit:2.61310004999999990;stroke-opacity:1;stroke-dasharray:none"
       id="path3173" />
    <path
       inkscape:connector-curvature="0"
       d="m 412.20448,507.54444 c 13.69182,0 24.80368,11.11043 24.80368,24.80225 0,13.69181 -11.11186,24.80368 -24.80368,24.80368 -13.69038,0 -24.80224,-11.11187 -24.80224,-24.80368 0,-13.69182 11.11186,-24.80225 24.80224,-24.80225 z"
       style="fill:none;stroke:#000000;stroke-width:0.26999938000000001;stroke-linecap:butt;stroke-linejoin:miter;stroke-miterlimit:2.61310004999999990;stroke-opacity:1;stroke-dasharray:none"
       id="path3175" />
    <path
       inkscape:connector-curvature="0"
       d="m 337.79631,507.54444 c 13.69038,0 24.80224,11.11043 24.80224,24.80225 0,13.69181 -11.11186,24.80368 -24.80224,24.80368 -13.69182,0 -24.80368,-11.11187 -24.80368,-24.80368 0,-13.69182 11.11186,-24.80225 24.80368,-24.80225 z"
       style="fill:none;stroke:#000000;stroke-width:0.26999938000000001;stroke-linecap:butt;stroke-linejoin:miter;stroke-miterlimit:2.61310004999999990;stroke-opacity:1;stroke-dasharray:none"
       id="path3177" />
  </g>
</svg>
